<?xml version="1.0" encoding="UTF-8" standalone="no"?>
<svg
   xmlns:dc="http://purl.org/dc/elements/1.1/"
   xmlns:cc="http://creativecommons.org/ns#"
   xmlns:rdf="http://www.w3.org/1999/02/22-rdf-syntax-ns#"
   xmlns:svg="http://www.w3.org/2000/svg"
   xmlns="http://www.w3.org/2000/svg"
   xmlns:sodipodi="http://sodipodi.sourceforge.net/DTD/sodipodi-0.dtd"
   xmlns:inkscape="http://www.inkscape.org/namespaces/inkscape"
   width="400"
   height="400"
   viewBox="0 0 400 400"
   version="1.1"
   id="svg40"
   sodipodi:docname="art.svg"
   inkscape:version="0.92.3 (2405546, 2018-03-11)"
   xml:space="preserve"
   style="fill:none"><metadata
     id="metadata53"><rdf:RDF><cc:Work
         rdf:about=""><dc:format>image/svg+xml</dc:format><dc:type
           rdf:resource="http://purl.org/dc/dcmitype/StillImage" /><dc:title></dc:title></cc:Work></rdf:RDF></metadata><sodipodi:namedview
     id="namedview40"
     pagecolor="#ffffff"
     bordercolor="#000000"
     borderopacity="0.25"
     inkscape:showpageshadow="2"
     inkscape:pageopacity="0.0"
     inkscape:pagecheckerboard="0"
     inkscape:deskcolor="#d1d1d1"
     inkscape:zoom="0.89723995"
     inkscape:cx="440.70411"
     inkscape:cy="167.9515"
     inkscape:window-width="1920"
     inkscape:window-height="1009"
     inkscape:window-x="-8"
     inkscape:window-y="-8"
     inkscape:window-maximized="1"
     inkscape:current-layer="svg40"
     showgrid="false" /><defs
     id="defs40"><inkscape:path-effect
       effect="envelope"
       id="path-effect864"
       is_visible="true"
       yy="true"
       xx="true"
       bendpath1="m 464.7661,314.97828 55.86985,-32.25647"
       bendpath2="m 520.63595,282.72181 v 60.63101"
       bendpath3="m 465.70618,375.06654 54.92977,-31.71372"
       bendpath4="m 464.7661,314.97828 0.94008,60.08826"
       bendpath1-nodetypes="cc"
       bendpath2-nodetypes="cc"
       bendpath3-nodetypes="cc"
       bendpath4-nodetypes="cc" /><clipPath
       id="clip0_277_50"><rect
         width="60"
         height="60"
         transform="translate(191,190)"
         id="rect35"
         x="0"
         y="0"
         style="fill:#ffffff" /></clipPath><clipPath
       id="clip1_277_50"><rect
         width="60"
         height="60"
         transform="translate(45,345)"
         id="rect36"
         x="0"
         y="0"
         style="fill:#ffffff" /></clipPath><clipPath
       id="clip2_277_50"><rect
         width="60"
         height="60"
         transform="translate(492,497)"
         id="rect37"
         x="0"
         y="0"
         style="fill:#ffffff" /></clipPath><clipPath
       id="clip3_277_50"><rect
         width="60"
         height="60"
         transform="translate(645,40)"
         id="rect38"
         x="0"
         y="0"
         style="fill:#ffffff" /></clipPath><clipPath
       id="clip4_277_50"><rect
         width="60"
         height="60"
         transform="translate(349,40)"
         id="rect39"
         x="0"
         y="0"
         style="fill:#ffffff" /></clipPath><clipPath
       id="clip5_277_50"><rect
         width="60"
         height="60"
         transform="translate(801,497)"
         id="rect40"
         x="0"
         y="0"
         style="fill:#ffffff" /></clipPath></defs><path
     style="fill:#5d6e7a;fill-opacity:1;stroke:none;stroke-width:0.07588819"
     d="m 200.90015,97.181166 c -0.89135,-0.0226 -1.79673,0.0191 -2.71484,0.14258 -8.93092,1.18706 -15.84875,6.556884 -23.48633,10.941404 -14.21769,8.16209 -28.26421,16.67669 -42.32227,25.11133 -8.11752,4.87039 -16.51581,8.885 -20.33789,18.15235 -2.69736,6.54027 -1.92383,13.88329 -1.92383,20.79492 v 35.22851 23.73047 c 0,7.43626 -0.17102,14.41254 3.7793,21.03907 3.6526,6.12715 9.82102,9.35935 15.79102,12.82421 8.28109,4.80611 16.49754,9.74976 24.70898,14.67383 8.216,4.92684 16.49437,9.74907 24.70899,14.67774 7.70431,4.62253 14.84166,9.30206 24.21875,8.15039 8.16368,-1.0026 15.35529,-6.87974 22.26367,-10.9375 14.22327,-8.35453 28.42179,-16.76134 42.5664,-25.24805 7.61244,-4.5673 15.77051,-8.43312 19.4668,-17.07617 2.96483,-6.93252 2.30664,-14.40704 2.30664,-21.77344 v -34.98437 -23.72852 c 0,-7.20596 0.17441,-14.07956 -3.5293,-20.55078 -3.61182,-6.3097 -9.53506,-9.45186 -15.55273,-13.0625 -8.21463,-4.92868 -16.49436,-9.75102 -24.70898,-14.67969 -9.34904,-5.6093 -18.75476,-11.12515 -28.13282,-16.68554 -5.25978,-3.1187 -10.86242,-6.577904 -17.10156,-6.740244 z m -0.87109,4.681644 c 0.43861,-0.01 0.88343,-0.004 1.33593,0.0156 5.68273,0.24919 10.46299,3.6244 15.16797,6.44726 7.15467,4.29261 14.37463,8.47892 21.5293,12.77149 9.68205,5.80914 19.39898,11.55981 29.11133,17.31836 8.26008,4.8976 15.76752,9.09528 17.85937,19.23046 h -0.24609 c -2.85942,-4.94664 -8.10007,-4.48513 -12.47656,-1.98828 -10.30422,5.87899 -20.24866,12.5148 -30.33399,18.76368 -9.20398,5.70271 -18.4844,11.2897 -27.64453,17.0625 -5.27526,3.32454 -11.03506,6.36323 -14.32226,11.91015 -3.31912,5.6012 -2.31446,12.8541 -2.31446,19.08203 v 38.16406 24.95313 c 0,4.91997 0.60723,9.68336 5.38281,12.23047 -1.75722,0.84448 -4.00618,0.50444 -5.87109,0.24609 -6.12857,-0.84925 -11.44432,-4.86121 -16.63672,-7.97656 -14.55854,-8.73499 -29.14967,-17.42644 -43.78906,-26.02539 -7.07607,-4.15638 -15.82732,-7.77506 -19.75391,-15.41602 -3.87157,-7.53384 -2.50976,-17.00137 -2.50976,-25.19726 v -49.66211 c 0,-8.47374 -1.13831,-17.68137 4.14062,-24.95313 3.89523,-5.36568 10.54926,-8.3448 16.16407,-11.60351 9.35052,-5.42674 18.61998,-11.01785 27.89062,-16.58008 6.66506,-3.99899 13.39201,-7.8957 20.06055,-11.88867 5.59442,-3.34971 10.67671,-6.75361 17.25586,-6.9043 z m 68.27929,88.34766 c 0.59195,0.0543 1.10686,0.25379 1.42188,0.81054 0.48072,0.84959 0.34357,2.23208 0.34375,3.43555 0,-0.01 0.002,6.55883 0.002,6.54883 l 0.004,23.63476 c 0,0.0102 -10e-6,6.9566 0,6.9668 2e-4,1.32482 0.13124,2.61712 -0.52735,4.16992 -0.74431,1.75487 -2.19063,3.04477 -3.39257,4.39649 -2.29176,2.57739 -4.59569,5.15723 -6.91602,7.6875 -1.11045,1.21093 -2.24732,2.76906 -3.48047,3.65234 -1.58893,1.13813 -2.60979,0.66742 -3.71094,0.20117 -1.22844,-0.52013 -2.45687,-1.04184 -3.67187,-1.58984 -3.97683,-1.79364 -8.03727,-3.48724 -12.09375,-5.16406 -1.22053,-0.50454 -2.41452,-1.06131 -3.65039,-1.53906 -0.4563,-0.17642 -0.97036,-0.65321 -1.52734,-0.59961 -0.25247,0.0243 -0.56836,0.61211 -0.75,0.86914 -0.69636,0.98625 -1.28021,1.82626 -1.97657,2.8125 -2.47705,3.52229 -3.49561,5.01286 -5.97265,8.53515 -1.08145,1.53781 -2.24857,2.98272 -3.54493,2.70703 -0.7931,-0.16869 -1.52503,-0.56773 -2.24218,-0.88281 -0.73243,-0.32177 -1.5918,-0.45014 -1.74805,-1.52734 -0.18136,-1.25013 0.65571,-2.51969 1.44922,-3.83399 1.63305,-2.70487 3.358,-5.35537 5.00195,-8.05078 0.57092,-0.93459 1.13415,-1.79197 1.70508,-2.72656 0.13918,-0.22782 0.5323,-0.72895 0.5293,-0.96289 -0.003,-0.2323 -0.35111,-0.24895 -0.49024,-0.31055 -0.5566,-0.24648 -1.12699,-0.47506 -1.70117,-0.68945 -1.81972,-0.67931 -3.57868,-1.47259 -5.38476,-2.17383 -0.98746,-0.38341 -1.86219,-1.03753 -1.25391,-2.90234 0.28162,-0.86338 0.90423,-1.69226 1.39062,-2.49024 1.20938,-1.98414 2.75858,-5.1581 4.68555,-5.32812 1.01108,-0.0892 1.9798,0.38245 2.85547,0.61719 1.48086,0.39695 3.0017,0.71201 4.49414,1.08398 0.63875,0.1592 1.28231,0.3095 1.91602,0.47852 0.18675,0.0498 0.51778,0.24349 0.76562,0.0976 0.42651,-0.25131 1.15134,-1.69761 1.44922,-2.18164 1.26431,-2.05429 2.55726,-4.11159 3.86523,-6.14062 4.23426,-6.56858 8.40138,-13.21506 12.57032,-19.85352 1.00305,-1.59721 2.0165,-3.18993 3.0332,-4.78125 0.88474,-1.38483 1.64342,-2.67843 2.88086,-3.58789 1.48125,-1.08864 2.93217,-0.88654 4.20508,-0.93164 2.51151,-0.0891 5.05982,-0.27686 7.58203,-0.39063 0.62245,-0.0281 1.29281,-0.12069 1.88476,-0.0664 z m -12.13281,16.90625 c 0.006,-0.008 -1.46694,2.01776 -1.46094,2.00976 0.0146,-0.0207 -2.82514,3.9875 -2.81054,3.9668 0.04,-0.0566 -8.55553,12.09371 -8.51563,12.03711 -0.0138,0.0195 -3.69323,5.22464 -3.70703,5.24414 v 0.11719 c 3.871,0.96996 7.83162,1.97432 11.68164,2.96289 0.0198,0.005 3.28098,0.84851 3.30078,0.85351 0.007,0.002 1.61605,0.3691 1.62305,0.3711 0,-4.4e-4 -0.11133,-27.56206 -0.11133,-27.5625 z"
     id="path862"
     inkscape:connector-curvature="0" /></svg>